# xmcd
#
# Track frame offsets: 
#        150
#        34780
#        68270
#        95975
#        126783
#        139320
#        162525
#        183000
#        207215
#        244915
#
# Disc length: 3980 seconds
#
# Revision: 0
# Processed by: cddbd v1.4PL0 Copyright (c) Steve Scherf et al.
# Submitted via: ExactAudioCopy v0.90b4
#
DISCID=8c0f8a0a
DTITLE=Van Morrison with Danish Radio Big Band - The Vanløse Blackbird
DYEAR=1986
DGENRE=Celtic
TTITLE0=Haunts Of Ancient Peace
TTITLE1=Listen To The Lion
TTITLE2=Vanlose Stairway
TTITLE3=Vanlose Stairway
TTITLE4=I Will Be There
TTITLE5=A New Kind Of Man
TTITLE6=Here Comes The Knight
TTITLE7=Got To Go Back
TTITLE8=Interview # 1
TTITLE9=Interview # 2
EXTD=
EXTT0=
EXTT1=
EXTT2=
EXTT3=
EXTT4=
EXTT5=
EXTT6=
EXTT7=
EXTT8=
EXTT9=
PLAYORDER=
